<?xml version="1.0" ?><!DOCTYPE svg  PUBLIC '-//W3C//DTD SVG 1.1//EN'  'http://www.w3.org/Graphics/SVG/1.1/DTD/svg11.dtd'><svg height="2048px" style="shape-rendering:geometricPrecision; text-rendering:geometricPrecision; image-rendering:optimizeQuality; fill-rule:evenodd; clip-rule:evenodd" viewBox="0 0 2048 2048" width="2048px" xml:space="preserve" xmlns="http://www.w3.org/2000/svg" xmlns:xlink="http://www.w3.org/1999/xlink"><defs><style type="text/css">
   <![CDATA[
    .fil2 {fill:none}
    .fil1 {fill:#EBEBEA}
    .fil0 {fill:#333333;fill-rule:nonzero}
   ]]>
  </style></defs><g id="Layer_x0020_1"><path class="fil0" d="M1409.84 1070.25c-1.62874,-163.844 111.194,-256.168 152.147,-284.584 -29.8217,-39.2811 -64.6123,-66.3296 -98.9398,-84.9331 -60.7666,-32.9327 -120.033,-39.6189 -148.136,-40.7953l-0.937796 -0.0625985c-66.2422,-6.7063 -132.3,19.337 -186.275,40.617 -36.8445,14.5264 -68.452,26.9882 -94.0194,26.9882 -28.0075,0 -60.502,-12.8965 -96.9757,-27.3697 -44.2784,-17.5713 -94.8851,-37.6536 -145.634,-36.7335l-0.0625985 0c-59.3516,0.879922 -116.437,18.104 -166.389,48.3792 -50.4083,30.5516 -93.5587,74.3977 -124.474,128.166 -56.4331,97.9265 -68.5619,217.63 -53.6741,336.005 18.3827,146.157 77.8701,289.876 146.27,388.641 30.4087,43.9831 63.7063,90.6438 100.866,125.456 35.3611,33.1288 74.3186,55.5319 117.717,53.9433l0 -0.00236221c40.2839,-1.6063 69.7524,-14.1614 100.223,-27.1418 38.2677,-16.3028 77.9942,-33.2268 141.561,-33.2268 60.7512,0 98.8087,16.4693 135.405,32.3044 31.8662,13.7882 62.5205,27.052 107.347,26.2099 45.5646,-0.84567 83.1851,-21.9248 116.589,-53.1638 34.7292,-32.4792 65.4745,-76.5319 95.7272,-120.722 55.7268,-81.4335 85.1776,-160.753 95.556,-191.677 -45.8681,-22.239 -192.168,-108.28 -193.891,-306.298zm182.212 -266.188c-14.2559,8.82048 -152.045,94.0808 -150.337,265.937 1.80236,207.182 177.474,279.003 187.171,282.966l0.0625985 0 0.419292 0.173622 13.7835 5.70709 -4.72087 14.1047c-0.279921,0.836221 0.0377953,-0.0531496 -0.370866,1.25906 -4.48229,14.361 -34.8685,111.708 -103.511,212.014 -31.1481,45.4985 -62.8831,90.9284 -100.352,125.971 -38.7957,36.2823 -83.1024,60.7737 -137.837,61.7906 -51.5894,0.968505 -85.3642,-13.6453 -120.474,-28.8366 -33.4784,-14.4862 -68.2949,-29.5524 -122.779,-29.5524 -57.2339,0 -93.8198,15.5858 -129.06,30.6 -33.1725,14.1319 -65.2548,27.7996 -111.474,29.6433l-0.0625985 0c-53.3693,1.98189 -99.6485,-24.0343 -140.778,-62.5678 -39.3496,-36.8646 -73.8249,-85.1398 -105.241,-130.579 -70.917,-102.399 -132.592,-251.392 -151.647,-402.892 -15.6732,-124.616 -2.57244,-251.206 57.6756,-355.753 33.6331,-58.4953 80.6398,-106.233 135.598,-139.543 54.7075,-33.1571 117.299,-52.0264 182.451,-53.0032l0 -0.0011811c57.0402,-1.03465 110.823,20.3091 157.884,38.9847 33.3059,13.2165 62.98,24.9933 85.226,24.9933 19.6536,0 48.6237,-11.4224 82.3949,-24.737 57.0367,-22.487 126.815,-49.9949 200.599,-42.6579 30.9862,1.34764 95.5265,8.76969 161.501,44.524 42.0284,22.7776 84.6579,56.9741 119.701,108.261l9.23977 13.5248 -13.8024 8.91261c-0.73819,0.477166 -0.0200788,-0.00944883 -1.25906,0.755906zm-363.903 -291.162c25.6477,-31.1233 46.937,-68.5749 60.117,-109.023 10.3158,-31.6607 15.6189,-65.1036 14.0823,-98.6906 -30.4264,3.69095 -63.0934,14.5228 -94.128,30.4819 -36.6012,18.8209 -70.6441,44.6374 -95.8607,74.1756l-0.0625985 0.0625985c-24.5126,28.3937 -47.4024,66.0048 -61.5969,107.367 -10.435,30.4051 -16.1008,62.6859 -14.1106,94.539 31.9925,0.0590552 64.0973,-8.42127 93.9202,-22.6465 37.9548,-18.1051 72.0709,-45.4099 97.6087,-76.291l0.0307087 0.0248032zm90.4926 -99.1489c-14.426,44.2737 -37.767,85.3075 -65.8997,119.436l0 0.0625985c-28.3855,34.324 -66.3012,64.6713 -108.482,84.7926 -38.713,18.4665 -81.1489,28.4114 -123.377,25.1197l-12.9236 -1.00748 -1.70197 -12.8681c-5.48622,-41.4992 0.849213,-83.5099 14.1921,-122.387 15.5268,-45.241 40.6772,-86.5205 67.6642,-117.8l-0.00472441 -0.00472441c27.9272,-32.7142 65.3788,-61.1776 105.487,-81.8009 40.2437,-20.6941 83.465,-33.6343 122.803,-35.237l14.8701 -0.605906 1.62992 14.8559c4.76457,43.4481 -1.02992,86.8489 -14.2571,127.445z"/><path class="fil1" d="M811.319 1743.97l0 0zm100.223 -27.1441c38.2677,-16.3028 77.9942,-33.2268 141.561,-33.2268 60.7512,0 98.8087,16.4693 135.405,32.3044 31.8662,13.7882 62.5205,27.052 107.347,26.2099 45.5646,-0.84567 83.1851,-21.9248 116.589,-53.1638 34.7292,-32.4792 65.4745,-76.5319 95.7272,-120.722 55.7268,-81.4335 85.1776,-160.753 95.556,-191.677 -45.8681,-22.239 -192.168,-108.28 -193.891,-306.298 -1.62874,-163.844 111.194,-256.168 152.147,-284.584 -29.8217,-39.2811 -64.6123,-66.3296 -98.9398,-84.9331 -60.7666,-32.9327 -120.033,-39.6189 -148.136,-40.7953l-0.937796 -0.0625985c-66.2422,-6.7063 -132.3,19.337 -186.275,40.617 -36.8445,14.5264 -68.452,26.9882 -94.0194,26.9882 -28.0075,0 -60.502,-12.8965 -96.9757,-27.3697 -44.2784,-17.5713 -94.8851,-37.6536 -145.634,-36.7335l-0.0625985 0c-59.3516,0.879922 -116.437,18.104 -166.389,48.3792 -50.4083,30.5516 -93.5587,74.3977 -124.474,128.166 -56.4331,97.9265 -68.5619,217.63 -53.6741,336.005 18.3827,146.157 77.8701,289.876 146.27,388.641 30.4087,43.9831 63.7063,90.6438 100.866,125.456 35.3611,33.1288 74.3186,55.5319 117.717,53.941 40.2839,-1.6063 69.7524,-14.1614 100.223,-27.1418z"/><path class="fil1" d="M1036.59 611.817c31.9925,0.0590552 64.0973,-8.42127 93.9202,-22.6465 37.9548,-18.1051 72.0709,-45.4099 97.6087,-76.291l0.0307087 0.0248032c25.6477,-31.1233 46.937,-68.5749 60.117,-109.023 10.3158,-31.6607 15.6189,-65.1036 14.0823,-98.6906 -30.4264,3.69095 -63.0934,14.5228 -94.128,30.4819 -36.6012,18.8209 -70.6441,44.6374 -95.8607,74.1756l-0.0625985 0.0625985c-24.5126,28.3937 -47.4024,66.0048 -61.5969,107.367 -10.435,30.4051 -16.1008,62.6859 -14.1106,94.539z"/></g><rect class="fil2" height="2048" width="2048"/></svg>